<mxfile host="65bd71144e">
    <diagram name="Sistema de Pólizas - Microservicios" id="yZJZWR_VW7ttg2apmTk4">
        <mxGraphModel dx="1240" dy="1107" grid="1" gridSize="10" guides="1" tooltips="1" connect="1" arrows="1" fold="1" page="1" pageScale="1" pageWidth="827" pageHeight="1169" math="0" shadow="0">
            <root>
                <mxCell id="0"/>
                <mxCell id="1" parent="0"/>
                <mxCell id="agent" value="Agente de seguros&#xa;[Persona]&#xa;Intermediario entre aseguradora&#xa;y asegurado" style="ellipse;html=1;aspect=fixed;whiteSpace=wrap;fillColor=#1F4E79;fontColor=#FFFFFF;" parent="1" vertex="1">
                    <mxGeometry x="430" y="20" width="100" height="100" as="geometry"/>
                </mxCell>
                <mxCell id="gss" value="Global Surance System (GSS)&#xa;[Sistema de Software]&#xa;Sistema de gestión de póliza de seguro." style="rounded=1;whiteSpace=wrap;html=1;fillColor=#1F4E79;fontColor=#FFFFFF;" parent="1" vertex="1">
                    <mxGeometry x="310" y="140" width="340" height="100" as="geometry"/>
                </mxCell>
                <mxCell id="api" value="API Gateway&#xa;[Contenedor: Tyk API Gateway 3.x]&#xa;Conector que sirve de puerta de acceso a los microservicios. Si está presente en el patrón,&#xa;el cliente no llama a los microservicios directamente." style="rounded=1;whiteSpace=wrap;html=1;fillColor=#6DA3D6;" parent="1" vertex="1">
                    <mxGeometry x="310" y="260" width="340" height="120" as="geometry"/>
                </mxCell>
                <mxCell id="pagos" value="Pagos&#xa;[Contenedor: GO]&#xa;Mostrar los pagos realizados por los clientes." style="rounded=1;whiteSpace=wrap;html=1;fillColor=#FFD966;" parent="1" vertex="1">
                    <mxGeometry x="40" y="260" width="220" height="80" as="geometry"/>
                </mxCell>
                <mxCell id="reporteador" value="Reporteador&#xa;[Contenedor: Python 3.x, Flask 2.x]&#xa;Generar el documento de la póliza de un asegurado." style="rounded=1;whiteSpace=wrap;html=1;fillColor=#9CC3E6;" parent="1" vertex="1">
                    <mxGeometry x="100" y="440" width="220" height="80" as="geometry"/>
                </mxCell>
                <mxCell id="gestor" value="Gestor de clientes&#xa;[Contenedor: Python 3.x, Flask 2.x]&#xa;Gestiona la información de los clientes en el sistema." style="rounded=1;whiteSpace=wrap;html=1;fillColor=#FFD966;" parent="1" vertex="1">
                    <mxGeometry x="470" y="440" width="240" height="80" as="geometry"/>
                </mxCell>
                <mxCell id="mongo" value="Base de datos&#xa;[Contenedor: MongoDB 5.x]&#xa;Almacena información del sistema" style="shape=cylinder;whiteSpace=wrap;html=1;fillColor=#BDD7EE;" parent="1" vertex="1">
                    <mxGeometry x="500" y="550" width="180" height="100" as="geometry"/>
                </mxCell>
                <mxCell id="notificador" value="Notificador&#xa;[Contenedor: Python 3.x, Flask 2.x]&#xa;Generar el documento de la póliza de un asegurado." style="rounded=1;whiteSpace=wrap;html=1;fillColor=#FFD966;" parent="1" vertex="1">
                    <mxGeometry x="690" y="260" width="240" height="80" as="geometry"/>
                </mxCell>

                <mxCell id="simulador" value="Simulador&#xa;[Contenedor: Python 3.x]&#xa;Genera pagos simulados." style="rounded=1;whiteSpace=wrap;html=1;fillColor=#9CC3E6;" parent="1" vertex="1">
                    <mxGeometry x="350" y="360" width="220" height="80" as="geometry"/>
                </mxCell>
                <mxCell id="telegram" value="TELEGRAM&#xa;[Herramienta de mensajería]&#xa;Recibe el mensaje y el pdf de actualización de la&#xa;póliza solicitada al chat del Bot." style="rounded=1;whiteSpace=wrap;html=1;fillColor=#BDD7EE;" parent="1" vertex="1">
                    <mxGeometry x="750" y="360" width="200" height="80" as="geometry"/>
                </mxCell>
                <mxCell id="2" style="endArrow=block;" parent="1" source="agent" target="gss" edge="1">
                    <mxGeometry relative="1" as="geometry"/>
                </mxCell>
                <mxCell id="3" style="endArrow=block;" parent="1" source="gss" target="api" edge="1">
                    <mxGeometry relative="1" as="geometry"/>
                </mxCell>
                <mxCell id="4" style="endArrow=block;" parent="1" source="api" target="pagos" edge="1">
                    <mxGeometry relative="1" as="geometry"/>
                </mxCell>
                <mxCell id="5" style="endArrow=block;" parent="1" source="api" target="reporteador" edge="1">
                    <mxGeometry relative="1" as="geometry"/>
                </mxCell>
                <mxCell id="6" style="endArrow=block;" parent="1" source="api" target="gestor" edge="1">
                    <mxGeometry relative="1" as="geometry"/>
                </mxCell>
                <mxCell id="7" style="endArrow=block;" parent="1" source="gestor" target="mongo" edge="1">
                    <mxGeometry relative="1" as="geometry"/>
                </mxCell>
                <mxCell id="8" style="endArrow=block;" parent="1" source="api" target="notificador" edge="1">
                    <mxGeometry relative="1" as="geometry"/>
                </mxCell>
                <mxCell id="9" style="endArrow=block;" parent="1" source="notificador" target="telegram" edge="1">
                    <mxGeometry relative="1" as="geometry"/>
                </mxCell>

                <mxCell id="10" style="endArrow=block;" parent="1" source="api" target="simulador" edge="1">
                    <mxGeometry relative="1" as="geometry"/>
                </mxCell>
            </root>
        </mxGraphModel>
    </diagram>
</mxfile>